<?xml version="1.0" encoding="utf-8" standalone="no"?>
<!DOCTYPE svg PUBLIC "-//W3C//DTD SVG 1.1//EN"
  "http://www.w3.org/Graphics/SVG/1.1/DTD/svg11.dtd">
<svg xmlns:xlink="http://www.w3.org/1999/xlink" width="252pt" height="216pt" viewBox="0 0 252 216" xmlns="http://www.w3.org/2000/svg" version="1.1">
 <metadata>
  <rdf:RDF xmlns:dc="http://purl.org/dc/elements/1.1/" xmlns:cc="http://creativecommons.org/ns#" xmlns:rdf="http://www.w3.org/1999/02/22-rdf-syntax-ns#">
   <cc:Work>
    <dc:type rdf:resource="http://purl.org/dc/dcmitype/StillImage"/>
    <dc:date>2023-01-22T16:28:31.707764</dc:date>
    <dc:format>image/svg+xml</dc:format>
    <dc:creator>
     <cc:Agent>
      <dc:title>Matplotlib v3.5.3, https://matplotlib.org/</dc:title>
     </cc:Agent>
    </dc:creator>
   </cc:Work>
  </rdf:RDF>
 </metadata>
 <defs>
  <style type="text/css">*{stroke-linejoin: round; stroke-linecap: butt}</style>
 </defs>
 <g id="figure_1">
  <g id="patch_1">
   <path d="M 0 216 
L 252 216 
L 252 0 
L 0 0 
z
" style="fill: #ffffff"/>
  </g>
  <g id="axes_1">
   <g id="patch_2">
    <path d="M 53.53625 166.520464 
L 241.2 166.520464 
L 241.2 10.8 
L 53.53625 10.8 
z
" style="fill: #ffffff"/>
   </g>
   <g id="patch_3">
    <path d="M 62.06642 166.520464 
L 72.101915 166.520464 
L 72.101915 106.98108 
L 62.06642 106.98108 
z
" clip-path="url(#pd3b26fcd33)" style="fill: #191970; opacity: 0.4"/>
   </g>
   <g id="patch_4">
    <path d="M 72.101915 166.520464 
L 82.13741 166.520464 
L 82.13741 93.756171 
L 72.101915 93.756171 
z
" clip-path="url(#pd3b26fcd33)" style="fill: #191970"/>
   </g>
   <g id="patch_5">
    <path d="M 87.155157 166.520464 
L 97.190652 166.520464 
L 97.190652 106.973785 
L 87.155157 106.973785 
z
" clip-path="url(#pd3b26fcd33)" style="fill: #0000cd; opacity: 0.4"/>
   </g>
   <g id="patch_6">
    <path d="M 97.190652 166.520464 
L 107.226146 166.520464 
L 107.226146 93.673229 
L 97.190652 93.673229 
z
" clip-path="url(#pd3b26fcd33)" style="fill: #0000cd"/>
   </g>
   <g id="patch_7">
    <path d="M 112.243894 166.520464 
L 122.279388 166.520464 
L 122.279388 103.371114 
L 112.243894 103.371114 
z
" clip-path="url(#pd3b26fcd33)" style="fill: #6495ed; opacity: 0.4"/>
   </g>
   <g id="patch_8">
    <path d="M 122.279388 166.520464 
L 132.314883 166.520464 
L 132.314883 92.050656 
L 122.279388 92.050656 
z
" clip-path="url(#pd3b26fcd33)" style="fill: #6495ed"/>
   </g>
   <g id="patch_9">
    <path d="M 137.33263 166.520464 
L 147.368125 166.520464 
L 147.368125 100.766468 
L 137.33263 100.766468 
z
" clip-path="url(#pd3b26fcd33)" style="fill: #87cefa; opacity: 0.4"/>
   </g>
   <g id="patch_10">
    <path d="M 147.368125 166.520464 
L 157.40362 166.520464 
L 157.40362 87.852969 
L 147.368125 87.852969 
z
" clip-path="url(#pd3b26fcd33)" style="fill: #87cefa"/>
   </g>
   <g id="patch_11">
    <path d="M 162.421367 166.520464 
L 172.456862 166.520464 
L 172.456862 87.21572 
L 162.421367 87.21572 
z
" clip-path="url(#pd3b26fcd33)" style="fill: #7fffd4; opacity: 0.4"/>
   </g>
   <g id="patch_12">
    <path d="M 172.456862 166.520464 
L 182.492356 166.520464 
L 182.492356 81.026863 
L 172.456862 81.026863 
z
" clip-path="url(#pd3b26fcd33)" style="fill: #7fffd4"/>
   </g>
   <g id="patch_13">
    <path d="M 187.510104 166.520464 
L 197.545598 166.520464 
L 197.545598 58.910603 
L 187.510104 58.910603 
z
" clip-path="url(#pd3b26fcd33)" style="fill: #98fb98; opacity: 0.4"/>
   </g>
   <g id="patch_14">
    <path d="M 197.545598 166.520464 
L 207.581093 166.520464 
L 207.581093 40.080895 
L 197.545598 40.080895 
z
" clip-path="url(#pd3b26fcd33)" style="fill: #98fb98"/>
   </g>
   <g id="patch_15">
    <path d="M 212.59884 166.520464 
L 222.634335 166.520464 
L 222.634335 82.190533 
L 212.59884 82.190533 
z
" clip-path="url(#pd3b26fcd33)" style="fill: #3cb371; opacity: 0.4"/>
   </g>
   <g id="patch_16">
    <path d="M 222.634335 166.520464 
L 232.66983 166.520464 
L 232.66983 61.897001 
L 222.634335 61.897001 
z
" clip-path="url(#pd3b26fcd33)" style="fill: #3cb371"/>
   </g>
   <g id="matplotlib.axis_1">
    <g id="xtick_1">
     <g id="line2d_1">
      <defs>
       <path id="m903cd8cfd3" d="M 0 0 
L 0 3.5 
" style="stroke: #000000; stroke-width: 0.8"/>
      </defs>
      <g>
       <use xlink:href="#m903cd8cfd3" x="72.101915" y="166.520464" style="stroke: #000000; stroke-width: 0.8"/>
      </g>
     </g>
     <g id="text_1">
      <!-- Monday -->
      <g transform="translate(42.1573 196.199553)rotate(-30)scale(0.1 -0.1)">
       <defs>
        <path id="TimesNewRomanPSMT-4d" d="M 2619 0 
L 981 3566 
L 981 734 
Q 981 344 1066 247 
Q 1181 116 1431 116 
L 1581 116 
L 1581 0 
L 106 0 
L 106 116 
L 256 116 
Q 525 116 638 278 
Q 706 378 706 734 
L 706 3503 
Q 706 3784 644 3909 
Q 600 4000 483 4061 
Q 366 4122 106 4122 
L 106 4238 
L 1306 4238 
L 2844 922 
L 4356 4238 
L 5556 4238 
L 5556 4122 
L 5409 4122 
Q 5138 4122 5025 3959 
Q 4956 3859 4956 3503 
L 4956 734 
Q 4956 344 5044 247 
Q 5159 116 5409 116 
L 5556 116 
L 5556 0 
L 3756 0 
L 3756 116 
L 3906 116 
Q 4178 116 4288 278 
Q 4356 378 4356 734 
L 4356 3566 
L 2722 0 
L 2619 0 
z
" transform="scale(0.015625)"/>
        <path id="TimesNewRomanPSMT-6f" d="M 1600 2947 
Q 2250 2947 2644 2453 
Q 2978 2031 2978 1484 
Q 2978 1100 2793 706 
Q 2609 313 2286 112 
Q 1963 -88 1566 -88 
Q 919 -88 538 428 
Q 216 863 216 1403 
Q 216 1797 411 2186 
Q 606 2575 925 2761 
Q 1244 2947 1600 2947 
z
M 1503 2744 
Q 1338 2744 1170 2645 
Q 1003 2547 900 2300 
Q 797 2053 797 1666 
Q 797 1041 1045 587 
Q 1294 134 1700 134 
Q 2003 134 2200 384 
Q 2397 634 2397 1244 
Q 2397 2006 2069 2444 
Q 1847 2744 1503 2744 
z
" transform="scale(0.015625)"/>
        <path id="TimesNewRomanPSMT-6e" d="M 1034 2341 
Q 1538 2947 1994 2947 
Q 2228 2947 2397 2830 
Q 2566 2713 2666 2444 
Q 2734 2256 2734 1869 
L 2734 647 
Q 2734 375 2778 278 
Q 2813 200 2889 156 
Q 2966 113 3172 113 
L 3172 0 
L 1756 0 
L 1756 113 
L 1816 113 
Q 2016 113 2095 173 
Q 2175 234 2206 353 
Q 2219 400 2219 647 
L 2219 1819 
Q 2219 2209 2117 2386 
Q 2016 2563 1775 2563 
Q 1403 2563 1034 2156 
L 1034 647 
Q 1034 356 1069 288 
Q 1113 197 1189 155 
Q 1266 113 1500 113 
L 1500 0 
L 84 0 
L 84 113 
L 147 113 
Q 366 113 442 223 
Q 519 334 519 647 
L 519 1709 
Q 519 2225 495 2337 
Q 472 2450 423 2490 
Q 375 2531 294 2531 
Q 206 2531 84 2484 
L 38 2597 
L 900 2947 
L 1034 2947 
L 1034 2341 
z
" transform="scale(0.015625)"/>
        <path id="TimesNewRomanPSMT-64" d="M 2222 322 
Q 2013 103 1813 7 
Q 1613 -88 1381 -88 
Q 913 -88 563 304 
Q 213 697 213 1313 
Q 213 1928 600 2439 
Q 988 2950 1597 2950 
Q 1975 2950 2222 2709 
L 2222 3238 
Q 2222 3728 2198 3840 
Q 2175 3953 2125 3993 
Q 2075 4034 2000 4034 
Q 1919 4034 1784 3984 
L 1744 4094 
L 2597 4444 
L 2738 4444 
L 2738 1134 
Q 2738 631 2761 520 
Q 2784 409 2836 365 
Q 2888 322 2956 322 
Q 3041 322 3181 375 
L 3216 266 
L 2366 -88 
L 2222 -88 
L 2222 322 
z
M 2222 541 
L 2222 2016 
Q 2203 2228 2109 2403 
Q 2016 2578 1861 2667 
Q 1706 2756 1559 2756 
Q 1284 2756 1069 2509 
Q 784 2184 784 1559 
Q 784 928 1059 592 
Q 1334 256 1672 256 
Q 1956 256 2222 541 
z
" transform="scale(0.015625)"/>
        <path id="TimesNewRomanPSMT-61" d="M 1822 413 
Q 1381 72 1269 19 
Q 1100 -59 909 -59 
Q 613 -59 420 144 
Q 228 347 228 678 
Q 228 888 322 1041 
Q 450 1253 767 1440 
Q 1084 1628 1822 1897 
L 1822 2009 
Q 1822 2438 1686 2597 
Q 1550 2756 1291 2756 
Q 1094 2756 978 2650 
Q 859 2544 859 2406 
L 866 2225 
Q 866 2081 792 2003 
Q 719 1925 600 1925 
Q 484 1925 411 2006 
Q 338 2088 338 2228 
Q 338 2497 613 2722 
Q 888 2947 1384 2947 
Q 1766 2947 2009 2819 
Q 2194 2722 2281 2516 
Q 2338 2381 2338 1966 
L 2338 994 
Q 2338 584 2353 492 
Q 2369 400 2405 369 
Q 2441 338 2488 338 
Q 2538 338 2575 359 
Q 2641 400 2828 588 
L 2828 413 
Q 2478 -56 2159 -56 
Q 2006 -56 1915 50 
Q 1825 156 1822 413 
z
M 1822 616 
L 1822 1706 
Q 1350 1519 1213 1441 
Q 966 1303 859 1153 
Q 753 1003 753 825 
Q 753 600 887 451 
Q 1022 303 1197 303 
Q 1434 303 1822 616 
z
" transform="scale(0.015625)"/>
        <path id="TimesNewRomanPSMT-79" d="M 38 2863 
L 1372 2863 
L 1372 2747 
L 1306 2747 
Q 1166 2747 1095 2686 
Q 1025 2625 1025 2534 
Q 1025 2413 1128 2197 
L 1825 753 
L 2466 2334 
Q 2519 2463 2519 2588 
Q 2519 2644 2497 2672 
Q 2472 2706 2419 2726 
Q 2366 2747 2231 2747 
L 2231 2863 
L 3163 2863 
L 3163 2747 
Q 3047 2734 2984 2696 
Q 2922 2659 2847 2556 
Q 2819 2513 2741 2316 
L 1575 -541 
Q 1406 -956 1132 -1168 
Q 859 -1381 606 -1381 
Q 422 -1381 303 -1275 
Q 184 -1169 184 -1031 
Q 184 -900 270 -820 
Q 356 -741 506 -741 
Q 609 -741 788 -809 
Q 913 -856 944 -856 
Q 1038 -856 1148 -759 
Q 1259 -663 1372 -384 
L 1575 113 
L 547 2272 
Q 500 2369 397 2513 
Q 319 2622 269 2659 
Q 197 2709 38 2747 
L 38 2863 
z
" transform="scale(0.015625)"/>
       </defs>
       <use xlink:href="#TimesNewRomanPSMT-4d"/>
       <use xlink:href="#TimesNewRomanPSMT-6f" x="88.916016"/>
       <use xlink:href="#TimesNewRomanPSMT-6e" x="138.916016"/>
       <use xlink:href="#TimesNewRomanPSMT-64" x="188.916016"/>
       <use xlink:href="#TimesNewRomanPSMT-61" x="238.916016"/>
       <use xlink:href="#TimesNewRomanPSMT-79" x="283.300781"/>
      </g>
     </g>
    </g>
    <g id="xtick_2">
     <g id="line2d_2">
      <g>
       <use xlink:href="#m903cd8cfd3" x="97.190652" y="166.520464" style="stroke: #000000; stroke-width: 0.8"/>
      </g>
     </g>
     <g id="text_2">
      <!-- Tuesday -->
      <g transform="translate(67.075537 196.29799)rotate(-30)scale(0.1 -0.1)">
       <defs>
        <path id="TimesNewRomanPSMT-54" d="M 3703 4238 
L 3750 3244 
L 3631 3244 
Q 3597 3506 3538 3619 
Q 3441 3800 3280 3886 
Q 3119 3972 2856 3972 
L 2259 3972 
L 2259 734 
Q 2259 344 2344 247 
Q 2463 116 2709 116 
L 2856 116 
L 2856 0 
L 1059 0 
L 1059 116 
L 1209 116 
Q 1478 116 1591 278 
Q 1659 378 1659 734 
L 1659 3972 
L 1150 3972 
Q 853 3972 728 3928 
Q 566 3869 450 3700 
Q 334 3531 313 3244 
L 194 3244 
L 244 4238 
L 3703 4238 
z
" transform="scale(0.015625)"/>
        <path id="TimesNewRomanPSMT-75" d="M 2709 2863 
L 2709 1128 
Q 2709 631 2732 520 
Q 2756 409 2807 365 
Q 2859 322 2928 322 
Q 3025 322 3147 375 
L 3191 266 
L 2334 -88 
L 2194 -88 
L 2194 519 
Q 1825 119 1631 15 
Q 1438 -88 1222 -88 
Q 981 -88 804 51 
Q 628 191 559 409 
Q 491 628 491 1028 
L 491 2306 
Q 491 2509 447 2587 
Q 403 2666 317 2708 
Q 231 2750 6 2747 
L 6 2863 
L 1009 2863 
L 1009 947 
Q 1009 547 1148 422 
Q 1288 297 1484 297 
Q 1619 297 1789 381 
Q 1959 466 2194 703 
L 2194 2325 
Q 2194 2569 2105 2655 
Q 2016 2741 1734 2747 
L 1734 2863 
L 2709 2863 
z
" transform="scale(0.015625)"/>
        <path id="TimesNewRomanPSMT-65" d="M 681 1784 
Q 678 1147 991 784 
Q 1303 422 1725 422 
Q 2006 422 2214 576 
Q 2422 731 2563 1106 
L 2659 1044 
Q 2594 616 2278 264 
Q 1963 -88 1488 -88 
Q 972 -88 605 314 
Q 238 716 238 1394 
Q 238 2128 614 2539 
Q 991 2950 1559 2950 
Q 2041 2950 2350 2633 
Q 2659 2316 2659 1784 
L 681 1784 
z
M 681 1966 
L 2006 1966 
Q 1991 2241 1941 2353 
Q 1863 2528 1708 2628 
Q 1553 2728 1384 2728 
Q 1125 2728 920 2526 
Q 716 2325 681 1966 
z
" transform="scale(0.015625)"/>
        <path id="TimesNewRomanPSMT-73" d="M 2050 2947 
L 2050 1972 
L 1947 1972 
Q 1828 2431 1642 2597 
Q 1456 2763 1169 2763 
Q 950 2763 815 2647 
Q 681 2531 681 2391 
Q 681 2216 781 2091 
Q 878 1963 1175 1819 
L 1631 1597 
Q 2266 1288 2266 781 
Q 2266 391 1970 151 
Q 1675 -88 1309 -88 
Q 1047 -88 709 6 
Q 606 38 541 38 
Q 469 38 428 -44 
L 325 -44 
L 325 978 
L 428 978 
Q 516 541 762 319 
Q 1009 97 1316 97 
Q 1531 97 1667 223 
Q 1803 350 1803 528 
Q 1803 744 1651 891 
Q 1500 1038 1047 1263 
Q 594 1488 453 1669 
Q 313 1847 313 2119 
Q 313 2472 555 2709 
Q 797 2947 1181 2947 
Q 1350 2947 1591 2875 
Q 1750 2828 1803 2828 
Q 1853 2828 1881 2850 
Q 1909 2872 1947 2947 
L 2050 2947 
z
" transform="scale(0.015625)"/>
       </defs>
       <use xlink:href="#TimesNewRomanPSMT-54"/>
       <use xlink:href="#TimesNewRomanPSMT-75" x="57.583984"/>
       <use xlink:href="#TimesNewRomanPSMT-65" x="107.583984"/>
       <use xlink:href="#TimesNewRomanPSMT-73" x="151.96875"/>
       <use xlink:href="#TimesNewRomanPSMT-64" x="190.884766"/>
       <use xlink:href="#TimesNewRomanPSMT-61" x="240.884766"/>
       <use xlink:href="#TimesNewRomanPSMT-79" x="285.269531"/>
      </g>
     </g>
    </g>
    <g id="xtick_3">
     <g id="line2d_3">
      <g>
       <use xlink:href="#m903cd8cfd3" x="122.279388" y="166.520464" style="stroke: #000000; stroke-width: 0.8"/>
      </g>
     </g>
     <g id="text_3">
      <!-- Wednesday -->
      <g transform="translate(81.494571 202.458147)rotate(-30)scale(0.1 -0.1)">
       <defs>
        <path id="TimesNewRomanPSMT-57" d="M 5991 4238 
L 5991 4122 
Q 5825 4122 5722 4062 
Q 5619 4003 5525 3841 
Q 5463 3731 5328 3319 
L 4147 -97 
L 4022 -97 
L 3056 2613 
L 2097 -97 
L 1984 -97 
L 725 3422 
Q 584 3816 547 3888 
Q 484 4006 376 4064 
Q 269 4122 84 4122 
L 84 4238 
L 1653 4238 
L 1653 4122 
L 1578 4122 
Q 1413 4122 1325 4047 
Q 1238 3972 1238 3866 
Q 1238 3756 1375 3363 
L 2209 984 
L 2913 3006 
L 2788 3363 
L 2688 3647 
Q 2622 3803 2541 3922 
Q 2500 3981 2441 4022 
Q 2363 4078 2284 4103 
Q 2225 4122 2097 4122 
L 2097 4238 
L 3747 4238 
L 3747 4122 
L 3634 4122 
Q 3459 4122 3378 4047 
Q 3297 3972 3297 3844 
Q 3297 3684 3438 3288 
L 4250 984 
L 5056 3319 
Q 5194 3706 5194 3856 
Q 5194 3928 5148 3990 
Q 5103 4053 5034 4078 
Q 4916 4122 4725 4122 
L 4725 4238 
L 5991 4238 
z
" transform="scale(0.015625)"/>
       </defs>
       <use xlink:href="#TimesNewRomanPSMT-57"/>
       <use xlink:href="#TimesNewRomanPSMT-65" x="86.384766"/>
       <use xlink:href="#TimesNewRomanPSMT-64" x="130.769531"/>
       <use xlink:href="#TimesNewRomanPSMT-6e" x="180.769531"/>
       <use xlink:href="#TimesNewRomanPSMT-65" x="230.769531"/>
       <use xlink:href="#TimesNewRomanPSMT-73" x="275.154297"/>
       <use xlink:href="#TimesNewRomanPSMT-64" x="314.070312"/>
       <use xlink:href="#TimesNewRomanPSMT-61" x="364.070312"/>
       <use xlink:href="#TimesNewRomanPSMT-79" x="408.455078"/>
      </g>
     </g>
    </g>
    <g id="xtick_4">
     <g id="line2d_4">
      <g>
       <use xlink:href="#m903cd8cfd3" x="147.368125" y="166.520464" style="stroke: #000000; stroke-width: 0.8"/>
      </g>
     </g>
     <g id="text_4">
      <!-- Thursday -->
      <g transform="translate(113.580522 198.418303)rotate(-30)scale(0.1 -0.1)">
       <defs>
        <path id="TimesNewRomanPSMT-68" d="M 1041 4444 
L 1041 2350 
Q 1388 2731 1591 2839 
Q 1794 2947 1997 2947 
Q 2241 2947 2416 2812 
Q 2591 2678 2675 2391 
Q 2734 2191 2734 1659 
L 2734 647 
Q 2734 375 2778 275 
Q 2809 200 2884 156 
Q 2959 113 3159 113 
L 3159 0 
L 1753 0 
L 1753 113 
L 1819 113 
Q 2019 113 2097 173 
Q 2175 234 2206 353 
Q 2216 403 2216 647 
L 2216 1659 
Q 2216 2128 2167 2275 
Q 2119 2422 2012 2495 
Q 1906 2569 1756 2569 
Q 1603 2569 1437 2487 
Q 1272 2406 1041 2159 
L 1041 647 
Q 1041 353 1073 281 
Q 1106 209 1195 161 
Q 1284 113 1503 113 
L 1503 0 
L 84 0 
L 84 113 
Q 275 113 384 172 
Q 447 203 484 290 
Q 522 378 522 647 
L 522 3238 
Q 522 3728 498 3840 
Q 475 3953 426 3993 
Q 378 4034 297 4034 
Q 231 4034 84 3984 
L 41 4094 
L 897 4444 
L 1041 4444 
z
" transform="scale(0.015625)"/>
        <path id="TimesNewRomanPSMT-72" d="M 1038 2947 
L 1038 2303 
Q 1397 2947 1775 2947 
Q 1947 2947 2059 2842 
Q 2172 2738 2172 2600 
Q 2172 2478 2090 2393 
Q 2009 2309 1897 2309 
Q 1788 2309 1652 2417 
Q 1516 2525 1450 2525 
Q 1394 2525 1328 2463 
Q 1188 2334 1038 2041 
L 1038 669 
Q 1038 431 1097 309 
Q 1138 225 1241 169 
Q 1344 113 1538 113 
L 1538 0 
L 72 0 
L 72 113 
Q 291 113 397 181 
Q 475 231 506 341 
Q 522 394 522 644 
L 522 1753 
Q 522 2253 501 2348 
Q 481 2444 426 2487 
Q 372 2531 291 2531 
Q 194 2531 72 2484 
L 41 2597 
L 906 2947 
L 1038 2947 
z
" transform="scale(0.015625)"/>
       </defs>
       <use xlink:href="#TimesNewRomanPSMT-54"/>
       <use xlink:href="#TimesNewRomanPSMT-68" x="61.083984"/>
       <use xlink:href="#TimesNewRomanPSMT-75" x="111.083984"/>
       <use xlink:href="#TimesNewRomanPSMT-72" x="161.083984"/>
       <use xlink:href="#TimesNewRomanPSMT-73" x="194.384766"/>
       <use xlink:href="#TimesNewRomanPSMT-64" x="233.300781"/>
       <use xlink:href="#TimesNewRomanPSMT-61" x="283.300781"/>
       <use xlink:href="#TimesNewRomanPSMT-79" x="327.685547"/>
      </g>
     </g>
    </g>
    <g id="xtick_5">
     <g id="line2d_5">
      <g>
       <use xlink:href="#m903cd8cfd3" x="172.456862" y="166.520464" style="stroke: #000000; stroke-width: 0.8"/>
      </g>
     </g>
     <g id="text_5">
      <!-- Friday -->
      <g transform="translate(148.767927 192.587834)rotate(-30)scale(0.1 -0.1)">
       <defs>
        <path id="TimesNewRomanPSMT-46" d="M 1309 4006 
L 1309 2341 
L 2081 2341 
Q 2347 2341 2470 2458 
Q 2594 2575 2634 2922 
L 2750 2922 
L 2750 1488 
L 2634 1488 
Q 2631 1734 2570 1850 
Q 2509 1966 2401 2023 
Q 2294 2081 2081 2081 
L 1309 2081 
L 1309 750 
Q 1309 428 1350 325 
Q 1381 247 1481 191 
Q 1619 116 1769 116 
L 1922 116 
L 1922 0 
L 103 0 
L 103 116 
L 253 116 
Q 516 116 634 269 
Q 709 369 709 750 
L 709 3488 
Q 709 3809 669 3913 
Q 638 3991 541 4047 
Q 406 4122 253 4122 
L 103 4122 
L 103 4238 
L 3256 4238 
L 3297 3306 
L 3188 3306 
Q 3106 3603 2998 3742 
Q 2891 3881 2733 3943 
Q 2575 4006 2244 4006 
L 1309 4006 
z
" transform="scale(0.015625)"/>
        <path id="TimesNewRomanPSMT-69" d="M 928 4444 
Q 1059 4444 1151 4351 
Q 1244 4259 1244 4128 
Q 1244 3997 1151 3903 
Q 1059 3809 928 3809 
Q 797 3809 703 3903 
Q 609 3997 609 4128 
Q 609 4259 701 4351 
Q 794 4444 928 4444 
z
M 1188 2947 
L 1188 647 
Q 1188 378 1227 289 
Q 1266 200 1342 156 
Q 1419 113 1622 113 
L 1622 0 
L 231 0 
L 231 113 
Q 441 113 512 153 
Q 584 194 626 287 
Q 669 381 669 647 
L 669 1750 
Q 669 2216 641 2353 
Q 619 2453 572 2492 
Q 525 2531 444 2531 
Q 356 2531 231 2484 
L 188 2597 
L 1050 2947 
L 1188 2947 
z
" transform="scale(0.015625)"/>
       </defs>
       <use xlink:href="#TimesNewRomanPSMT-46"/>
       <use xlink:href="#TimesNewRomanPSMT-72" x="55.615234"/>
       <use xlink:href="#TimesNewRomanPSMT-69" x="88.916016"/>
       <use xlink:href="#TimesNewRomanPSMT-64" x="116.699219"/>
       <use xlink:href="#TimesNewRomanPSMT-61" x="166.699219"/>
       <use xlink:href="#TimesNewRomanPSMT-79" x="211.083984"/>
      </g>
     </g>
    </g>
    <g id="xtick_6">
     <g id="line2d_6">
      <g>
       <use xlink:href="#m903cd8cfd3" x="197.545598" y="166.520464" style="stroke: #000000; stroke-width: 0.8"/>
      </g>
     </g>
     <g id="text_6">
      <!-- Saturday -->
      <g transform="translate(165.682195 197.307365)rotate(-30)scale(0.1 -0.1)">
       <defs>
        <path id="TimesNewRomanPSMT-53" d="M 2934 4334 
L 2934 2869 
L 2819 2869 
Q 2763 3291 2617 3541 
Q 2472 3791 2203 3937 
Q 1934 4084 1647 4084 
Q 1322 4084 1109 3886 
Q 897 3688 897 3434 
Q 897 3241 1031 3081 
Q 1225 2847 1953 2456 
Q 2547 2138 2764 1967 
Q 2981 1797 3098 1565 
Q 3216 1334 3216 1081 
Q 3216 600 2842 251 
Q 2469 -97 1881 -97 
Q 1697 -97 1534 -69 
Q 1438 -53 1133 45 
Q 828 144 747 144 
Q 669 144 623 97 
Q 578 50 556 -97 
L 441 -97 
L 441 1356 
L 556 1356 
Q 638 900 775 673 
Q 913 447 1195 297 
Q 1478 147 1816 147 
Q 2206 147 2432 353 
Q 2659 559 2659 841 
Q 2659 997 2573 1156 
Q 2488 1316 2306 1453 
Q 2184 1547 1640 1851 
Q 1097 2156 867 2337 
Q 638 2519 519 2737 
Q 400 2956 400 3219 
Q 400 3675 750 4004 
Q 1100 4334 1641 4334 
Q 1978 4334 2356 4169 
Q 2531 4091 2603 4091 
Q 2684 4091 2736 4139 
Q 2788 4188 2819 4334 
L 2934 4334 
z
" transform="scale(0.015625)"/>
        <path id="TimesNewRomanPSMT-74" d="M 1031 3803 
L 1031 2863 
L 1700 2863 
L 1700 2644 
L 1031 2644 
L 1031 788 
Q 1031 509 1111 412 
Q 1191 316 1316 316 
Q 1419 316 1516 380 
Q 1613 444 1666 569 
L 1788 569 
Q 1678 263 1478 108 
Q 1278 -47 1066 -47 
Q 922 -47 784 33 
Q 647 113 581 261 
Q 516 409 516 719 
L 516 2644 
L 63 2644 
L 63 2747 
Q 234 2816 414 2980 
Q 594 3144 734 3369 
Q 806 3488 934 3803 
L 1031 3803 
z
" transform="scale(0.015625)"/>
       </defs>
       <use xlink:href="#TimesNewRomanPSMT-53"/>
       <use xlink:href="#TimesNewRomanPSMT-61" x="55.615234"/>
       <use xlink:href="#TimesNewRomanPSMT-74" x="100"/>
       <use xlink:href="#TimesNewRomanPSMT-75" x="127.783203"/>
       <use xlink:href="#TimesNewRomanPSMT-72" x="177.783203"/>
       <use xlink:href="#TimesNewRomanPSMT-64" x="211.083984"/>
       <use xlink:href="#TimesNewRomanPSMT-61" x="261.083984"/>
       <use xlink:href="#TimesNewRomanPSMT-79" x="305.46875"/>
      </g>
     </g>
    </g>
    <g id="xtick_7">
     <g id="line2d_7">
      <g>
       <use xlink:href="#m903cd8cfd3" x="222.634335" y="166.520464" style="stroke: #000000; stroke-width: 0.8"/>
      </g>
     </g>
     <g id="text_7">
      <!-- Sunday -->
      <g transform="translate(195.574667 194.533928)rotate(-30)scale(0.1 -0.1)">
       <use xlink:href="#TimesNewRomanPSMT-53"/>
       <use xlink:href="#TimesNewRomanPSMT-75" x="55.615234"/>
       <use xlink:href="#TimesNewRomanPSMT-6e" x="105.615234"/>
       <use xlink:href="#TimesNewRomanPSMT-64" x="155.615234"/>
       <use xlink:href="#TimesNewRomanPSMT-61" x="205.615234"/>
       <use xlink:href="#TimesNewRomanPSMT-79" x="250"/>
      </g>
     </g>
    </g>
   </g>
   <g id="matplotlib.axis_2">
    <g id="ytick_1">
     <g id="line2d_8">
      <defs>
       <path id="ma8840568fb" d="M 0 0 
L -3.5 0 
" style="stroke: #000000; stroke-width: 0.8"/>
      </defs>
      <g>
       <use xlink:href="#ma8840568fb" x="53.53625" y="166.520464" style="stroke: #000000; stroke-width: 0.8"/>
      </g>
     </g>
     <g id="text_8">
      <!-- 0 -->
      <g transform="translate(41.53625 169.992339)scale(0.1 -0.1)">
       <defs>
        <path id="TimesNewRomanPSMT-30" d="M 231 2094 
Q 231 2819 450 3342 
Q 669 3866 1031 4122 
Q 1313 4325 1613 4325 
Q 2100 4325 2488 3828 
Q 2972 3213 2972 2159 
Q 2972 1422 2759 906 
Q 2547 391 2217 158 
Q 1888 -75 1581 -75 
Q 975 -75 572 641 
Q 231 1244 231 2094 
z
M 844 2016 
Q 844 1141 1059 588 
Q 1238 122 1591 122 
Q 1759 122 1940 273 
Q 2122 425 2216 781 
Q 2359 1319 2359 2297 
Q 2359 3022 2209 3506 
Q 2097 3866 1919 4016 
Q 1791 4119 1609 4119 
Q 1397 4119 1231 3928 
Q 1006 3669 925 3112 
Q 844 2556 844 2016 
z
" transform="scale(0.015625)"/>
       </defs>
       <use xlink:href="#TimesNewRomanPSMT-30"/>
      </g>
     </g>
    </g>
    <g id="ytick_2">
     <g id="line2d_9">
      <g>
       <use xlink:href="#ma8840568fb" x="53.53625" y="144.114849" style="stroke: #000000; stroke-width: 0.8"/>
      </g>
     </g>
     <g id="text_9">
      <!-- 250 -->
      <g transform="translate(31.53625 147.586724)scale(0.1 -0.1)">
       <defs>
        <path id="TimesNewRomanPSMT-32" d="M 2934 816 
L 2638 0 
L 138 0 
L 138 116 
Q 1241 1122 1691 1759 
Q 2141 2397 2141 2925 
Q 2141 3328 1894 3587 
Q 1647 3847 1303 3847 
Q 991 3847 742 3664 
Q 494 3481 375 3128 
L 259 3128 
Q 338 3706 661 4015 
Q 984 4325 1469 4325 
Q 1984 4325 2329 3994 
Q 2675 3663 2675 3213 
Q 2675 2891 2525 2569 
Q 2294 2063 1775 1497 
Q 997 647 803 472 
L 1909 472 
Q 2247 472 2383 497 
Q 2519 522 2628 598 
Q 2738 675 2819 816 
L 2934 816 
z
" transform="scale(0.015625)"/>
        <path id="TimesNewRomanPSMT-35" d="M 2778 4238 
L 2534 3706 
L 1259 3706 
L 981 3138 
Q 1809 3016 2294 2522 
Q 2709 2097 2709 1522 
Q 2709 1188 2573 903 
Q 2438 619 2231 419 
Q 2025 219 1772 97 
Q 1413 -75 1034 -75 
Q 653 -75 479 54 
Q 306 184 306 341 
Q 306 428 378 495 
Q 450 563 559 563 
Q 641 563 702 538 
Q 763 513 909 409 
Q 1144 247 1384 247 
Q 1750 247 2026 523 
Q 2303 800 2303 1197 
Q 2303 1581 2056 1914 
Q 1809 2247 1375 2428 
Q 1034 2569 447 2591 
L 1259 4238 
L 2778 4238 
z
" transform="scale(0.015625)"/>
       </defs>
       <use xlink:href="#TimesNewRomanPSMT-32"/>
       <use xlink:href="#TimesNewRomanPSMT-35" x="50"/>
       <use xlink:href="#TimesNewRomanPSMT-30" x="100"/>
      </g>
     </g>
    </g>
    <g id="ytick_3">
     <g id="line2d_10">
      <g>
       <use xlink:href="#ma8840568fb" x="53.53625" y="121.709234" style="stroke: #000000; stroke-width: 0.8"/>
      </g>
     </g>
     <g id="text_10">
      <!-- 500 -->
      <g transform="translate(31.53625 125.181109)scale(0.1 -0.1)">
       <use xlink:href="#TimesNewRomanPSMT-35"/>
       <use xlink:href="#TimesNewRomanPSMT-30" x="50"/>
       <use xlink:href="#TimesNewRomanPSMT-30" x="100"/>
      </g>
     </g>
    </g>
    <g id="ytick_4">
     <g id="line2d_11">
      <g>
       <use xlink:href="#ma8840568fb" x="53.53625" y="99.303618" style="stroke: #000000; stroke-width: 0.8"/>
      </g>
     </g>
     <g id="text_11">
      <!-- 750 -->
      <g transform="translate(31.53625 102.775493)scale(0.1 -0.1)">
       <defs>
        <path id="TimesNewRomanPSMT-37" d="M 644 4238 
L 2916 4238 
L 2916 4119 
L 1503 -88 
L 1153 -88 
L 2419 3728 
L 1253 3728 
Q 900 3728 750 3644 
Q 488 3500 328 3200 
L 238 3234 
L 644 4238 
z
" transform="scale(0.015625)"/>
       </defs>
       <use xlink:href="#TimesNewRomanPSMT-37"/>
       <use xlink:href="#TimesNewRomanPSMT-35" x="50"/>
       <use xlink:href="#TimesNewRomanPSMT-30" x="100"/>
      </g>
     </g>
    </g>
    <g id="ytick_5">
     <g id="line2d_12">
      <g>
       <use xlink:href="#ma8840568fb" x="53.53625" y="76.898003" style="stroke: #000000; stroke-width: 0.8"/>
      </g>
     </g>
     <g id="text_12">
      <!-- 1000 -->
      <g transform="translate(26.53625 80.369878)scale(0.1 -0.1)">
       <defs>
        <path id="TimesNewRomanPSMT-31" d="M 750 3822 
L 1781 4325 
L 1884 4325 
L 1884 747 
Q 1884 391 1914 303 
Q 1944 216 2037 169 
Q 2131 122 2419 116 
L 2419 0 
L 825 0 
L 825 116 
Q 1125 122 1212 167 
Q 1300 213 1334 289 
Q 1369 366 1369 747 
L 1369 3034 
Q 1369 3497 1338 3628 
Q 1316 3728 1258 3775 
Q 1200 3822 1119 3822 
Q 1003 3822 797 3725 
L 750 3822 
z
" transform="scale(0.015625)"/>
       </defs>
       <use xlink:href="#TimesNewRomanPSMT-31"/>
       <use xlink:href="#TimesNewRomanPSMT-30" x="50"/>
       <use xlink:href="#TimesNewRomanPSMT-30" x="100"/>
       <use xlink:href="#TimesNewRomanPSMT-30" x="150"/>
      </g>
     </g>
    </g>
    <g id="ytick_6">
     <g id="line2d_13">
      <g>
       <use xlink:href="#ma8840568fb" x="53.53625" y="54.492388" style="stroke: #000000; stroke-width: 0.8"/>
      </g>
     </g>
     <g id="text_13">
      <!-- 1250 -->
      <g transform="translate(26.53625 57.964263)scale(0.1 -0.1)">
       <use xlink:href="#TimesNewRomanPSMT-31"/>
       <use xlink:href="#TimesNewRomanPSMT-32" x="50"/>
       <use xlink:href="#TimesNewRomanPSMT-35" x="100"/>
       <use xlink:href="#TimesNewRomanPSMT-30" x="150"/>
      </g>
     </g>
    </g>
    <g id="ytick_7">
     <g id="line2d_14">
      <g>
       <use xlink:href="#ma8840568fb" x="53.53625" y="32.086773" style="stroke: #000000; stroke-width: 0.8"/>
      </g>
     </g>
     <g id="text_14">
      <!-- 1500 -->
      <g transform="translate(26.53625 35.558648)scale(0.1 -0.1)">
       <use xlink:href="#TimesNewRomanPSMT-31"/>
       <use xlink:href="#TimesNewRomanPSMT-35" x="50"/>
       <use xlink:href="#TimesNewRomanPSMT-30" x="100"/>
       <use xlink:href="#TimesNewRomanPSMT-30" x="150"/>
      </g>
     </g>
    </g>
    <g id="text_15">
     <!-- average Getränke Sales (€) -->
     <g transform="translate(19.946875 153.461169)rotate(-90)scale(0.12 -0.12)">
      <defs>
       <path id="TimesNewRomanPSMT-76" d="M 53 2863 
L 1400 2863 
L 1400 2747 
L 1313 2747 
Q 1191 2747 1127 2687 
Q 1063 2628 1063 2528 
Q 1063 2419 1128 2269 
L 1794 688 
L 2463 2328 
Q 2534 2503 2534 2594 
Q 2534 2638 2509 2666 
Q 2475 2713 2422 2730 
Q 2369 2747 2206 2747 
L 2206 2863 
L 3141 2863 
L 3141 2747 
Q 2978 2734 2916 2681 
Q 2806 2588 2719 2369 
L 1703 -88 
L 1575 -88 
L 553 2328 
Q 484 2497 421 2570 
Q 359 2644 263 2694 
Q 209 2722 53 2747 
L 53 2863 
z
" transform="scale(0.015625)"/>
       <path id="TimesNewRomanPSMT-67" d="M 966 1044 
Q 703 1172 562 1401 
Q 422 1631 422 1909 
Q 422 2334 742 2640 
Q 1063 2947 1563 2947 
Q 1972 2947 2272 2747 
L 2878 2747 
Q 3013 2747 3034 2739 
Q 3056 2731 3066 2713 
Q 3084 2684 3084 2613 
Q 3084 2531 3069 2500 
Q 3059 2484 3036 2475 
Q 3013 2466 2878 2466 
L 2506 2466 
Q 2681 2241 2681 1891 
Q 2681 1491 2375 1206 
Q 2069 922 1553 922 
Q 1341 922 1119 984 
Q 981 866 932 777 
Q 884 688 884 625 
Q 884 572 936 522 
Q 988 472 1138 450 
Q 1225 438 1575 428 
Q 2219 413 2409 384 
Q 2700 344 2873 169 
Q 3047 -6 3047 -263 
Q 3047 -616 2716 -925 
Q 2228 -1381 1444 -1381 
Q 841 -1381 425 -1109 
Q 191 -953 191 -784 
Q 191 -709 225 -634 
Q 278 -519 444 -313 
Q 466 -284 763 25 
Q 600 122 533 198 
Q 466 275 466 372 
Q 466 481 555 628 
Q 644 775 966 1044 
z
M 1509 2797 
Q 1278 2797 1122 2612 
Q 966 2428 966 2047 
Q 966 1553 1178 1281 
Q 1341 1075 1591 1075 
Q 1828 1075 1981 1253 
Q 2134 1431 2134 1813 
Q 2134 2309 1919 2591 
Q 1759 2797 1509 2797 
z
M 934 0 
Q 788 -159 713 -296 
Q 638 -434 638 -550 
Q 638 -700 819 -813 
Q 1131 -1006 1722 -1006 
Q 2284 -1006 2551 -807 
Q 2819 -609 2819 -384 
Q 2819 -222 2659 -153 
Q 2497 -84 2016 -72 
Q 1313 -53 934 0 
z
" transform="scale(0.015625)"/>
       <path id="TimesNewRomanPSMT-20" transform="scale(0.015625)"/>
       <path id="TimesNewRomanPSMT-47" d="M 3928 4334 
L 4038 2997 
L 3928 2997 
Q 3763 3497 3500 3750 
Q 3122 4116 2528 4116 
Q 1719 4116 1297 3475 
Q 944 2934 944 2188 
Q 944 1581 1178 1081 
Q 1413 581 1792 348 
Q 2172 116 2572 116 
Q 2806 116 3025 175 
Q 3244 234 3447 350 
L 3447 1575 
Q 3447 1894 3398 1992 
Q 3350 2091 3248 2142 
Q 3147 2194 2891 2194 
L 2891 2313 
L 4531 2313 
L 4531 2194 
L 4453 2194 
Q 4209 2194 4119 2031 
Q 4056 1916 4056 1575 
L 4056 278 
Q 3697 84 3347 -6 
Q 2997 -97 2569 -97 
Q 1341 -97 703 691 
Q 225 1281 225 2053 
Q 225 2613 494 3125 
Q 813 3734 1369 4063 
Q 1834 4334 2469 4334 
Q 2700 4334 2889 4296 
Q 3078 4259 3425 4131 
Q 3600 4066 3659 4066 
Q 3719 4066 3761 4120 
Q 3803 4175 3813 4334 
L 3928 4334 
z
" transform="scale(0.015625)"/>
       <path id="TimesNewRomanPSMT-e4" d="M 1822 413 
Q 1381 72 1269 19 
Q 1100 -59 909 -59 
Q 613 -59 420 144 
Q 228 347 228 678 
Q 228 888 322 1041 
Q 450 1253 767 1440 
Q 1084 1628 1822 1897 
L 1822 2009 
Q 1822 2438 1686 2597 
Q 1550 2756 1291 2756 
Q 1094 2756 978 2650 
Q 859 2544 859 2406 
L 866 2225 
Q 866 2081 792 2003 
Q 719 1925 600 1925 
Q 484 1925 411 2006 
Q 338 2088 338 2228 
Q 338 2497 613 2722 
Q 888 2947 1384 2947 
Q 1766 2947 2009 2819 
Q 2194 2722 2281 2516 
Q 2338 2381 2338 1966 
L 2338 994 
Q 2338 584 2353 492 
Q 2369 400 2405 369 
Q 2441 338 2488 338 
Q 2538 338 2575 359 
Q 2641 400 2828 588 
L 2828 413 
Q 2478 -56 2159 -56 
Q 2006 -56 1915 50 
Q 1825 156 1822 413 
z
M 1822 616 
L 1822 1706 
Q 1350 1519 1213 1441 
Q 966 1303 859 1153 
Q 753 1003 753 825 
Q 753 600 887 451 
Q 1022 303 1197 303 
Q 1434 303 1822 616 
z
M 1981 4178 
Q 2122 4178 2220 4078 
Q 2319 3978 2319 3838 
Q 2319 3697 2220 3598 
Q 2122 3500 1981 3500 
Q 1841 3500 1741 3598 
Q 1641 3697 1641 3838 
Q 1641 3978 1741 4078 
Q 1841 4178 1981 4178 
z
M 878 4178 
Q 1022 4178 1120 4078 
Q 1219 3978 1219 3838 
Q 1219 3697 1119 3598 
Q 1019 3500 881 3500 
Q 741 3500 641 3598 
Q 541 3697 541 3838 
Q 541 3978 639 4078 
Q 738 4178 878 4178 
z
" transform="scale(0.015625)"/>
       <path id="TimesNewRomanPSMT-6b" d="M 1047 4444 
L 1047 1597 
L 1775 2259 
Q 2006 2472 2044 2528 
Q 2069 2566 2069 2603 
Q 2069 2666 2017 2711 
Q 1966 2756 1847 2763 
L 1847 2863 
L 3091 2863 
L 3091 2763 
Q 2834 2756 2664 2684 
Q 2494 2613 2291 2428 
L 1556 1750 
L 2291 822 
Q 2597 438 2703 334 
Q 2853 188 2966 144 
Q 3044 113 3238 113 
L 3238 0 
L 1847 0 
L 1847 113 
Q 1966 116 2008 148 
Q 2050 181 2050 241 
Q 2050 313 1925 472 
L 1047 1594 
L 1047 644 
Q 1047 366 1086 278 
Q 1125 191 1197 153 
Q 1269 116 1509 113 
L 1509 0 
L 53 0 
L 53 113 
Q 272 113 381 166 
Q 447 200 481 272 
Q 528 375 528 628 
L 528 3234 
Q 528 3731 506 3842 
Q 484 3953 434 3995 
Q 384 4038 303 4038 
Q 238 4038 106 3984 
L 53 4094 
L 903 4444 
L 1047 4444 
z
" transform="scale(0.015625)"/>
       <path id="TimesNewRomanPSMT-6c" d="M 1184 4444 
L 1184 647 
Q 1184 378 1223 290 
Q 1263 203 1344 158 
Q 1425 113 1647 113 
L 1647 0 
L 244 0 
L 244 113 
Q 441 113 512 153 
Q 584 194 625 287 
Q 666 381 666 647 
L 666 3247 
Q 666 3731 644 3842 
Q 622 3953 573 3993 
Q 525 4034 450 4034 
Q 369 4034 244 3984 
L 191 4094 
L 1044 4444 
L 1184 4444 
z
" transform="scale(0.015625)"/>
       <path id="TimesNewRomanPSMT-28" d="M 1988 -1253 
L 1988 -1369 
Q 1516 -1131 1200 -813 
Q 750 -359 506 256 
Q 263 872 263 1534 
Q 263 2503 741 3301 
Q 1219 4100 1988 4444 
L 1988 4313 
Q 1603 4100 1356 3731 
Q 1109 3363 987 2797 
Q 866 2231 866 1616 
Q 866 947 969 400 
Q 1050 -31 1165 -292 
Q 1281 -553 1476 -793 
Q 1672 -1034 1988 -1253 
z
" transform="scale(0.015625)"/>
       <path id="TimesNewRomanPSMT-20ac" d="M 2647 2303 
L 853 2303 
Q 844 2172 844 2044 
L 2569 2044 
L 2497 1800 
L 850 1800 
Q 875 1141 1113 700 
Q 1391 188 1863 188 
Q 2281 188 2563 403 
Q 2731 531 2991 891 
L 3088 828 
Q 2819 403 2600 222 
Q 2241 -75 1738 -75 
Q 1019 -75 625 522 
Q 303 1009 244 1800 
L -72 1800 
L 0 2044 
L 231 2044 
L 231 2094 
Q 231 2188 238 2303 
L -72 2303 
L 0 2547 
L 263 2547 
Q 369 3288 769 3769 
Q 1228 4325 1944 4325 
Q 2478 4325 3006 4050 
L 3006 3116 
L 2884 3116 
Q 2803 4119 1944 4119 
Q 1450 4119 1163 3597 
Q 941 3191 872 2547 
L 2719 2547 
L 2647 2303 
z
" transform="scale(0.015625)"/>
       <path id="TimesNewRomanPSMT-29" d="M 144 4313 
L 144 4444 
Q 619 4209 934 3891 
Q 1381 3434 1625 2820 
Q 1869 2206 1869 1541 
Q 1869 572 1392 -226 
Q 916 -1025 144 -1369 
L 144 -1253 
Q 528 -1038 776 -670 
Q 1025 -303 1145 264 
Q 1266 831 1266 1447 
Q 1266 2113 1163 2663 
Q 1084 3094 967 3353 
Q 850 3613 656 3853 
Q 463 4094 144 4313 
z
" transform="scale(0.015625)"/>
      </defs>
      <use xlink:href="#TimesNewRomanPSMT-61"/>
      <use xlink:href="#TimesNewRomanPSMT-76" x="44.384766"/>
      <use xlink:href="#TimesNewRomanPSMT-65" x="94.384766"/>
      <use xlink:href="#TimesNewRomanPSMT-72" x="138.769531"/>
      <use xlink:href="#TimesNewRomanPSMT-61" x="172.070312"/>
      <use xlink:href="#TimesNewRomanPSMT-67" x="216.455078"/>
      <use xlink:href="#TimesNewRomanPSMT-65" x="266.455078"/>
      <use xlink:href="#TimesNewRomanPSMT-20" x="310.839844"/>
      <use xlink:href="#TimesNewRomanPSMT-47" x="335.839844"/>
      <use xlink:href="#TimesNewRomanPSMT-65" x="408.056641"/>
      <use xlink:href="#TimesNewRomanPSMT-74" x="452.441406"/>
      <use xlink:href="#TimesNewRomanPSMT-72" x="480.224609"/>
      <use xlink:href="#TimesNewRomanPSMT-e4" x="513.525391"/>
      <use xlink:href="#TimesNewRomanPSMT-6e" x="557.910156"/>
      <use xlink:href="#TimesNewRomanPSMT-6b" x="607.910156"/>
      <use xlink:href="#TimesNewRomanPSMT-65" x="657.910156"/>
      <use xlink:href="#TimesNewRomanPSMT-20" x="702.294922"/>
      <use xlink:href="#TimesNewRomanPSMT-53" x="727.294922"/>
      <use xlink:href="#TimesNewRomanPSMT-61" x="782.910156"/>
      <use xlink:href="#TimesNewRomanPSMT-6c" x="827.294922"/>
      <use xlink:href="#TimesNewRomanPSMT-65" x="855.078125"/>
      <use xlink:href="#TimesNewRomanPSMT-73" x="899.462891"/>
      <use xlink:href="#TimesNewRomanPSMT-20" x="938.378906"/>
      <use xlink:href="#TimesNewRomanPSMT-28" x="963.378906"/>
      <use xlink:href="#TimesNewRomanPSMT-20ac" x="996.679688"/>
      <use xlink:href="#TimesNewRomanPSMT-29" x="1046.679688"/>
     </g>
    </g>
   </g>
   <g id="LineCollection_1">
    <path d="M 67.084168 123.869507 
L 67.084168 90.092654 
" clip-path="url(#pd3b26fcd33)" style="fill: none; stroke: #191970; stroke-width: 1.5"/>
   </g>
   <g id="line2d_15">
    <defs>
     <path id="mfcd07be5a6" d="M 3 0 
L -3 -0 
" style="stroke: #191970"/>
    </defs>
    <g clip-path="url(#pd3b26fcd33)">
     <use xlink:href="#mfcd07be5a6" x="67.084168" y="123.869507" style="fill: #191970; stroke: #191970"/>
    </g>
   </g>
   <g id="line2d_16">
    <g clip-path="url(#pd3b26fcd33)">
     <use xlink:href="#mfcd07be5a6" x="67.084168" y="90.092654" style="fill: #191970; stroke: #191970"/>
    </g>
   </g>
   <g id="LineCollection_2">
    <path d="M 77.119662 110.61567 
L 77.119662 76.896672 
" clip-path="url(#pd3b26fcd33)" style="fill: none; stroke: #191970; stroke-width: 1.5"/>
   </g>
   <g id="line2d_17">
    <g clip-path="url(#pd3b26fcd33)">
     <use xlink:href="#mfcd07be5a6" x="77.119662" y="110.61567" style="fill: #191970; stroke: #191970"/>
    </g>
   </g>
   <g id="line2d_18">
    <g clip-path="url(#pd3b26fcd33)">
     <use xlink:href="#mfcd07be5a6" x="77.119662" y="76.896672" style="fill: #191970; stroke: #191970"/>
    </g>
   </g>
   <g id="LineCollection_3">
    <path d="M 67.084168 123.869507 
L 67.084168 90.092654 
" clip-path="url(#pd3b26fcd33)" style="fill: none; stroke: #000000; stroke-opacity: 0.6; stroke-width: 1.5"/>
   </g>
   <g id="line2d_19">
    <defs>
     <path id="m872e286ff7" d="M 3 0 
L -3 -0 
" style="stroke: #000000; stroke-opacity: 0.6"/>
    </defs>
    <g clip-path="url(#pd3b26fcd33)">
     <use xlink:href="#m872e286ff7" x="67.084168" y="123.869507" style="fill-opacity: 0.6; stroke: #000000; stroke-opacity: 0.6"/>
    </g>
   </g>
   <g id="line2d_20">
    <g clip-path="url(#pd3b26fcd33)">
     <use xlink:href="#m872e286ff7" x="67.084168" y="90.092654" style="fill-opacity: 0.6; stroke: #000000; stroke-opacity: 0.6"/>
    </g>
   </g>
   <g id="LineCollection_4">
    <path d="M 77.119662 110.61567 
L 77.119662 76.896672 
" clip-path="url(#pd3b26fcd33)" style="fill: none; stroke: #000000; stroke-opacity: 0.6; stroke-width: 1.5"/>
   </g>
   <g id="line2d_21">
    <g clip-path="url(#pd3b26fcd33)">
     <use xlink:href="#m872e286ff7" x="77.119662" y="110.61567" style="fill-opacity: 0.6; stroke: #000000; stroke-opacity: 0.6"/>
    </g>
   </g>
   <g id="line2d_22">
    <g clip-path="url(#pd3b26fcd33)">
     <use xlink:href="#m872e286ff7" x="77.119662" y="76.896672" style="fill-opacity: 0.6; stroke: #000000; stroke-opacity: 0.6"/>
    </g>
   </g>
   <g id="LineCollection_5">
    <path d="M 92.172904 123.023642 
L 92.172904 90.923928 
" clip-path="url(#pd3b26fcd33)" style="fill: none; stroke: #0000cd; stroke-width: 1.5"/>
   </g>
   <g id="line2d_23">
    <defs>
     <path id="m19b0b8655d" d="M 3 0 
L -3 -0 
" style="stroke: #0000cd"/>
    </defs>
    <g clip-path="url(#pd3b26fcd33)">
     <use xlink:href="#m19b0b8655d" x="92.172904" y="123.023642" style="fill: #0000cd; stroke: #0000cd"/>
    </g>
   </g>
   <g id="line2d_24">
    <g clip-path="url(#pd3b26fcd33)">
     <use xlink:href="#m19b0b8655d" x="92.172904" y="90.923928" style="fill: #0000cd; stroke: #0000cd"/>
    </g>
   </g>
   <g id="LineCollection_6">
    <path d="M 102.208399 107.549565 
L 102.208399 79.796892 
" clip-path="url(#pd3b26fcd33)" style="fill: none; stroke: #0000cd; stroke-width: 1.5"/>
   </g>
   <g id="line2d_25">
    <g clip-path="url(#pd3b26fcd33)">
     <use xlink:href="#m19b0b8655d" x="102.208399" y="107.549565" style="fill: #0000cd; stroke: #0000cd"/>
    </g>
   </g>
   <g id="line2d_26">
    <g clip-path="url(#pd3b26fcd33)">
     <use xlink:href="#m19b0b8655d" x="102.208399" y="79.796892" style="fill: #0000cd; stroke: #0000cd"/>
    </g>
   </g>
   <g id="LineCollection_7">
    <path d="M 92.172904 123.023642 
L 92.172904 90.923928 
" clip-path="url(#pd3b26fcd33)" style="fill: none; stroke: #000000; stroke-opacity: 0.6; stroke-width: 1.5"/>
   </g>
   <g id="line2d_27">
    <g clip-path="url(#pd3b26fcd33)">
     <use xlink:href="#m872e286ff7" x="92.172904" y="123.023642" style="fill-opacity: 0.6; stroke: #000000; stroke-opacity: 0.6"/>
    </g>
   </g>
   <g id="line2d_28">
    <g clip-path="url(#pd3b26fcd33)">
     <use xlink:href="#m872e286ff7" x="92.172904" y="90.923928" style="fill-opacity: 0.6; stroke: #000000; stroke-opacity: 0.6"/>
    </g>
   </g>
   <g id="LineCollection_8">
    <path d="M 102.208399 107.549565 
L 102.208399 79.796892 
" clip-path="url(#pd3b26fcd33)" style="fill: none; stroke: #000000; stroke-opacity: 0.6; stroke-width: 1.5"/>
   </g>
   <g id="line2d_29">
    <g clip-path="url(#pd3b26fcd33)">
     <use xlink:href="#m872e286ff7" x="102.208399" y="107.549565" style="fill-opacity: 0.6; stroke: #000000; stroke-opacity: 0.6"/>
    </g>
   </g>
   <g id="line2d_30">
    <g clip-path="url(#pd3b26fcd33)">
     <use xlink:href="#m872e286ff7" x="102.208399" y="79.796892" style="fill-opacity: 0.6; stroke: #000000; stroke-opacity: 0.6"/>
    </g>
   </g>
   <g id="LineCollection_9">
    <path d="M 117.261641 121.551634 
L 117.261641 85.190595 
" clip-path="url(#pd3b26fcd33)" style="fill: none; stroke: #6495ed; stroke-width: 1.5"/>
   </g>
   <g id="line2d_31">
    <defs>
     <path id="ma40ad50d59" d="M 3 0 
L -3 -0 
" style="stroke: #6495ed"/>
    </defs>
    <g clip-path="url(#pd3b26fcd33)">
     <use xlink:href="#ma40ad50d59" x="117.261641" y="121.551634" style="fill: #6495ed; stroke: #6495ed"/>
    </g>
   </g>
   <g id="line2d_32">
    <g clip-path="url(#pd3b26fcd33)">
     <use xlink:href="#ma40ad50d59" x="117.261641" y="85.190595" style="fill: #6495ed; stroke: #6495ed"/>
    </g>
   </g>
   <g id="LineCollection_10">
    <path d="M 127.297136 105.96503 
L 127.297136 78.136283 
" clip-path="url(#pd3b26fcd33)" style="fill: none; stroke: #6495ed; stroke-width: 1.5"/>
   </g>
   <g id="line2d_33">
    <g clip-path="url(#pd3b26fcd33)">
     <use xlink:href="#ma40ad50d59" x="127.297136" y="105.96503" style="fill: #6495ed; stroke: #6495ed"/>
    </g>
   </g>
   <g id="line2d_34">
    <g clip-path="url(#pd3b26fcd33)">
     <use xlink:href="#ma40ad50d59" x="127.297136" y="78.136283" style="fill: #6495ed; stroke: #6495ed"/>
    </g>
   </g>
   <g id="LineCollection_11">
    <path d="M 117.261641 121.551634 
L 117.261641 85.190595 
" clip-path="url(#pd3b26fcd33)" style="fill: none; stroke: #000000; stroke-opacity: 0.6; stroke-width: 1.5"/>
   </g>
   <g id="line2d_35">
    <g clip-path="url(#pd3b26fcd33)">
     <use xlink:href="#m872e286ff7" x="117.261641" y="121.551634" style="fill-opacity: 0.6; stroke: #000000; stroke-opacity: 0.6"/>
    </g>
   </g>
   <g id="line2d_36">
    <g clip-path="url(#pd3b26fcd33)">
     <use xlink:href="#m872e286ff7" x="117.261641" y="85.190595" style="fill-opacity: 0.6; stroke: #000000; stroke-opacity: 0.6"/>
    </g>
   </g>
   <g id="LineCollection_12">
    <path d="M 127.297136 105.96503 
L 127.297136 78.136283 
" clip-path="url(#pd3b26fcd33)" style="fill: none; stroke: #000000; stroke-opacity: 0.6; stroke-width: 1.5"/>
   </g>
   <g id="line2d_37">
    <g clip-path="url(#pd3b26fcd33)">
     <use xlink:href="#m872e286ff7" x="127.297136" y="105.96503" style="fill-opacity: 0.6; stroke: #000000; stroke-opacity: 0.6"/>
    </g>
   </g>
   <g id="line2d_38">
    <g clip-path="url(#pd3b26fcd33)">
     <use xlink:href="#m872e286ff7" x="127.297136" y="78.136283" style="fill-opacity: 0.6; stroke: #000000; stroke-opacity: 0.6"/>
    </g>
   </g>
   <g id="LineCollection_13">
    <path d="M 142.350378 117.016218 
L 142.350378 84.516718 
" clip-path="url(#pd3b26fcd33)" style="fill: none; stroke: #87cefa; stroke-width: 1.5"/>
   </g>
   <g id="line2d_39">
    <defs>
     <path id="m0d28681262" d="M 3 0 
L -3 -0 
" style="stroke: #87cefa"/>
    </defs>
    <g clip-path="url(#pd3b26fcd33)">
     <use xlink:href="#m0d28681262" x="142.350378" y="117.016218" style="fill: #87cefa; stroke: #87cefa"/>
    </g>
   </g>
   <g id="line2d_40">
    <g clip-path="url(#pd3b26fcd33)">
     <use xlink:href="#m0d28681262" x="142.350378" y="84.516718" style="fill: #87cefa; stroke: #87cefa"/>
    </g>
   </g>
   <g id="LineCollection_14">
    <path d="M 152.385872 104.326827 
L 152.385872 71.379111 
" clip-path="url(#pd3b26fcd33)" style="fill: none; stroke: #87cefa; stroke-width: 1.5"/>
   </g>
   <g id="line2d_41">
    <g clip-path="url(#pd3b26fcd33)">
     <use xlink:href="#m0d28681262" x="152.385872" y="104.326827" style="fill: #87cefa; stroke: #87cefa"/>
    </g>
   </g>
   <g id="line2d_42">
    <g clip-path="url(#pd3b26fcd33)">
     <use xlink:href="#m0d28681262" x="152.385872" y="71.379111" style="fill: #87cefa; stroke: #87cefa"/>
    </g>
   </g>
   <g id="LineCollection_15">
    <path d="M 142.350378 117.016218 
L 142.350378 84.516718 
" clip-path="url(#pd3b26fcd33)" style="fill: none; stroke: #000000; stroke-opacity: 0.6; stroke-width: 1.5"/>
   </g>
   <g id="line2d_43">
    <g clip-path="url(#pd3b26fcd33)">
     <use xlink:href="#m872e286ff7" x="142.350378" y="117.016218" style="fill-opacity: 0.6; stroke: #000000; stroke-opacity: 0.6"/>
    </g>
   </g>
   <g id="line2d_44">
    <g clip-path="url(#pd3b26fcd33)">
     <use xlink:href="#m872e286ff7" x="142.350378" y="84.516718" style="fill-opacity: 0.6; stroke: #000000; stroke-opacity: 0.6"/>
    </g>
   </g>
   <g id="LineCollection_16">
    <path d="M 152.385872 104.326827 
L 152.385872 71.379111 
" clip-path="url(#pd3b26fcd33)" style="fill: none; stroke: #000000; stroke-opacity: 0.6; stroke-width: 1.5"/>
   </g>
   <g id="line2d_45">
    <g clip-path="url(#pd3b26fcd33)">
     <use xlink:href="#m872e286ff7" x="152.385872" y="104.326827" style="fill-opacity: 0.6; stroke: #000000; stroke-opacity: 0.6"/>
    </g>
   </g>
   <g id="line2d_46">
    <g clip-path="url(#pd3b26fcd33)">
     <use xlink:href="#m872e286ff7" x="152.385872" y="71.379111" style="fill-opacity: 0.6; stroke: #000000; stroke-opacity: 0.6"/>
    </g>
   </g>
   <g id="LineCollection_17">
    <path d="M 167.439114 107.473965 
L 167.439114 66.957475 
" clip-path="url(#pd3b26fcd33)" style="fill: none; stroke: #7fffd4; stroke-width: 1.5"/>
   </g>
   <g id="line2d_47">
    <defs>
     <path id="m513adb79a1" d="M 3 0 
L -3 -0 
" style="stroke: #7fffd4"/>
    </defs>
    <g clip-path="url(#pd3b26fcd33)">
     <use xlink:href="#m513adb79a1" x="167.439114" y="107.473965" style="fill: #7fffd4; stroke: #7fffd4"/>
    </g>
   </g>
   <g id="line2d_48">
    <g clip-path="url(#pd3b26fcd33)">
     <use xlink:href="#m513adb79a1" x="167.439114" y="66.957475" style="fill: #7fffd4; stroke: #7fffd4"/>
    </g>
   </g>
   <g id="LineCollection_18">
    <path d="M 177.474609 97.112663 
L 177.474609 64.941063 
" clip-path="url(#pd3b26fcd33)" style="fill: none; stroke: #7fffd4; stroke-width: 1.5"/>
   </g>
   <g id="line2d_49">
    <g clip-path="url(#pd3b26fcd33)">
     <use xlink:href="#m513adb79a1" x="177.474609" y="97.112663" style="fill: #7fffd4; stroke: #7fffd4"/>
    </g>
   </g>
   <g id="line2d_50">
    <g clip-path="url(#pd3b26fcd33)">
     <use xlink:href="#m513adb79a1" x="177.474609" y="64.941063" style="fill: #7fffd4; stroke: #7fffd4"/>
    </g>
   </g>
   <g id="LineCollection_19">
    <path d="M 167.439114 107.473965 
L 167.439114 66.957475 
" clip-path="url(#pd3b26fcd33)" style="fill: none; stroke: #000000; stroke-opacity: 0.6; stroke-width: 1.5"/>
   </g>
   <g id="line2d_51">
    <g clip-path="url(#pd3b26fcd33)">
     <use xlink:href="#m872e286ff7" x="167.439114" y="107.473965" style="fill-opacity: 0.6; stroke: #000000; stroke-opacity: 0.6"/>
    </g>
   </g>
   <g id="line2d_52">
    <g clip-path="url(#pd3b26fcd33)">
     <use xlink:href="#m872e286ff7" x="167.439114" y="66.957475" style="fill-opacity: 0.6; stroke: #000000; stroke-opacity: 0.6"/>
    </g>
   </g>
   <g id="LineCollection_20">
    <path d="M 177.474609 97.112663 
L 177.474609 64.941063 
" clip-path="url(#pd3b26fcd33)" style="fill: none; stroke: #000000; stroke-opacity: 0.6; stroke-width: 1.5"/>
   </g>
   <g id="line2d_53">
    <g clip-path="url(#pd3b26fcd33)">
     <use xlink:href="#m872e286ff7" x="177.474609" y="97.112663" style="fill-opacity: 0.6; stroke: #000000; stroke-opacity: 0.6"/>
    </g>
   </g>
   <g id="line2d_54">
    <g clip-path="url(#pd3b26fcd33)">
     <use xlink:href="#m872e286ff7" x="177.474609" y="64.941063" style="fill-opacity: 0.6; stroke: #000000; stroke-opacity: 0.6"/>
    </g>
   </g>
   <g id="LineCollection_21">
    <path d="M 192.527851 84.799226 
L 192.527851 33.02198 
" clip-path="url(#pd3b26fcd33)" style="fill: none; stroke: #98fb98; stroke-width: 1.5"/>
   </g>
   <g id="line2d_55">
    <defs>
     <path id="ma46b8f4ebc" d="M 3 0 
L -3 -0 
" style="stroke: #98fb98"/>
    </defs>
    <g clip-path="url(#pd3b26fcd33)">
     <use xlink:href="#ma46b8f4ebc" x="192.527851" y="84.799226" style="fill: #98fb98; stroke: #98fb98"/>
    </g>
   </g>
   <g id="line2d_56">
    <g clip-path="url(#pd3b26fcd33)">
     <use xlink:href="#ma46b8f4ebc" x="192.527851" y="33.02198" style="fill: #98fb98; stroke: #98fb98"/>
    </g>
   </g>
   <g id="LineCollection_22">
    <path d="M 202.563346 61.94653 
L 202.563346 18.21526 
" clip-path="url(#pd3b26fcd33)" style="fill: none; stroke: #98fb98; stroke-width: 1.5"/>
   </g>
   <g id="line2d_57">
    <g clip-path="url(#pd3b26fcd33)">
     <use xlink:href="#ma46b8f4ebc" x="202.563346" y="61.94653" style="fill: #98fb98; stroke: #98fb98"/>
    </g>
   </g>
   <g id="line2d_58">
    <g clip-path="url(#pd3b26fcd33)">
     <use xlink:href="#ma46b8f4ebc" x="202.563346" y="18.21526" style="fill: #98fb98; stroke: #98fb98"/>
    </g>
   </g>
   <g id="LineCollection_23">
    <path d="M 192.527851 84.799226 
L 192.527851 33.02198 
" clip-path="url(#pd3b26fcd33)" style="fill: none; stroke: #000000; stroke-opacity: 0.6; stroke-width: 1.5"/>
   </g>
   <g id="line2d_59">
    <g clip-path="url(#pd3b26fcd33)">
     <use xlink:href="#m872e286ff7" x="192.527851" y="84.799226" style="fill-opacity: 0.6; stroke: #000000; stroke-opacity: 0.6"/>
    </g>
   </g>
   <g id="line2d_60">
    <g clip-path="url(#pd3b26fcd33)">
     <use xlink:href="#m872e286ff7" x="192.527851" y="33.02198" style="fill-opacity: 0.6; stroke: #000000; stroke-opacity: 0.6"/>
    </g>
   </g>
   <g id="LineCollection_24">
    <path d="M 202.563346 61.94653 
L 202.563346 18.21526 
" clip-path="url(#pd3b26fcd33)" style="fill: none; stroke: #000000; stroke-opacity: 0.6; stroke-width: 1.5"/>
   </g>
   <g id="line2d_61">
    <g clip-path="url(#pd3b26fcd33)">
     <use xlink:href="#m872e286ff7" x="202.563346" y="61.94653" style="fill-opacity: 0.6; stroke: #000000; stroke-opacity: 0.6"/>
    </g>
   </g>
   <g id="line2d_62">
    <g clip-path="url(#pd3b26fcd33)">
     <use xlink:href="#m872e286ff7" x="202.563346" y="18.21526" style="fill-opacity: 0.6; stroke: #000000; stroke-opacity: 0.6"/>
    </g>
   </g>
   <g id="LineCollection_25">
    <path d="M 217.616588 101.681653 
L 217.616588 62.699413 
" clip-path="url(#pd3b26fcd33)" style="fill: none; stroke: #3cb371; stroke-width: 1.5"/>
   </g>
   <g id="line2d_63">
    <defs>
     <path id="ma32a0d6eae" d="M 3 0 
L -3 -0 
" style="stroke: #3cb371"/>
    </defs>
    <g clip-path="url(#pd3b26fcd33)">
     <use xlink:href="#ma32a0d6eae" x="217.616588" y="101.681653" style="fill: #3cb371; stroke: #3cb371"/>
    </g>
   </g>
   <g id="line2d_64">
    <g clip-path="url(#pd3b26fcd33)">
     <use xlink:href="#ma32a0d6eae" x="217.616588" y="62.699413" style="fill: #3cb371; stroke: #3cb371"/>
    </g>
   </g>
   <g id="LineCollection_26">
    <path d="M 227.652082 82.014113 
L 227.652082 41.779889 
" clip-path="url(#pd3b26fcd33)" style="fill: none; stroke: #3cb371; stroke-width: 1.5"/>
   </g>
   <g id="line2d_65">
    <g clip-path="url(#pd3b26fcd33)">
     <use xlink:href="#ma32a0d6eae" x="227.652082" y="82.014113" style="fill: #3cb371; stroke: #3cb371"/>
    </g>
   </g>
   <g id="line2d_66">
    <g clip-path="url(#pd3b26fcd33)">
     <use xlink:href="#ma32a0d6eae" x="227.652082" y="41.779889" style="fill: #3cb371; stroke: #3cb371"/>
    </g>
   </g>
   <g id="LineCollection_27">
    <path d="M 217.616588 101.681653 
L 217.616588 62.699413 
" clip-path="url(#pd3b26fcd33)" style="fill: none; stroke: #000000; stroke-opacity: 0.6; stroke-width: 1.5"/>
   </g>
   <g id="line2d_67">
    <g clip-path="url(#pd3b26fcd33)">
     <use xlink:href="#m872e286ff7" x="217.616588" y="101.681653" style="fill-opacity: 0.6; stroke: #000000; stroke-opacity: 0.6"/>
    </g>
   </g>
   <g id="line2d_68">
    <g clip-path="url(#pd3b26fcd33)">
     <use xlink:href="#m872e286ff7" x="217.616588" y="62.699413" style="fill-opacity: 0.6; stroke: #000000; stroke-opacity: 0.6"/>
    </g>
   </g>
   <g id="LineCollection_28">
    <path d="M 227.652082 82.014113 
L 227.652082 41.779889 
" clip-path="url(#pd3b26fcd33)" style="fill: none; stroke: #000000; stroke-opacity: 0.6; stroke-width: 1.5"/>
   </g>
   <g id="line2d_69">
    <g clip-path="url(#pd3b26fcd33)">
     <use xlink:href="#m872e286ff7" x="227.652082" y="82.014113" style="fill-opacity: 0.6; stroke: #000000; stroke-opacity: 0.6"/>
    </g>
   </g>
   <g id="line2d_70">
    <g clip-path="url(#pd3b26fcd33)">
     <use xlink:href="#m872e286ff7" x="227.652082" y="41.779889" style="fill-opacity: 0.6; stroke: #000000; stroke-opacity: 0.6"/>
    </g>
   </g>
   <g id="patch_17">
    <path d="M 53.53625 166.520464 
L 53.53625 10.8 
" style="fill: none; stroke: #000000; stroke-width: 0.8; stroke-linejoin: miter; stroke-linecap: square"/>
   </g>
   <g id="patch_18">
    <path d="M 53.53625 166.520464 
L 241.2 166.520464 
" style="fill: none; stroke: #000000; stroke-width: 0.8; stroke-linejoin: miter; stroke-linecap: square"/>
   </g>
   <g id="legend_1">
    <g id="patch_19">
     <path d="M 60.53625 61.217188 
L 140.984688 61.217188 
Q 142.984688 61.217188 142.984688 59.217188 
L 142.984688 17.8 
Q 142.984688 15.8 140.984688 15.8 
L 60.53625 15.8 
Q 58.53625 15.8 58.53625 17.8 
L 58.53625 59.217188 
Q 58.53625 61.217188 60.53625 61.217188 
z
" style="fill: #ffffff; opacity: 0.8; stroke: #cccccc; stroke-linejoin: miter"/>
    </g>
    <g id="patch_20">
     <path d="M 62.53625 26.8 
L 82.53625 26.8 
L 82.53625 19.8 
L 62.53625 19.8 
z
" style="fill: #808080; opacity: 0.4; stroke: #808080; stroke-linejoin: miter"/>
    </g>
    <g id="text_16">
     <!-- 2021 -->
     <g transform="translate(90.53625 26.8)scale(0.1 -0.1)">
      <use xlink:href="#TimesNewRomanPSMT-32"/>
      <use xlink:href="#TimesNewRomanPSMT-30" x="50"/>
      <use xlink:href="#TimesNewRomanPSMT-32" x="100"/>
      <use xlink:href="#TimesNewRomanPSMT-31" x="150"/>
     </g>
    </g>
    <g id="patch_21">
     <path d="M 62.53625 40.939063 
L 82.53625 40.939063 
L 82.53625 33.939063 
L 62.53625 33.939063 
z
" style="fill: #a9a9a9; stroke: #a9a9a9; stroke-linejoin: miter"/>
    </g>
    <g id="text_17">
     <!-- 2022 -->
     <g transform="translate(90.53625 40.939063)scale(0.1 -0.1)">
      <use xlink:href="#TimesNewRomanPSMT-32"/>
      <use xlink:href="#TimesNewRomanPSMT-30" x="50"/>
      <use xlink:href="#TimesNewRomanPSMT-32" x="100"/>
      <use xlink:href="#TimesNewRomanPSMT-32" x="150"/>
     </g>
    </g>
    <g id="LineCollection_29">
     <path d="M 72.53625 56.578125 
L 72.53625 46.578125 
" style="fill: none; stroke: #000000; stroke-opacity: 0.6; stroke-width: 1.5"/>
    </g>
    <g id="line2d_71">
     <g>
      <use xlink:href="#m872e286ff7" x="72.53625" y="56.578125" style="fill-opacity: 0.6; stroke: #000000; stroke-opacity: 0.6"/>
     </g>
    </g>
    <g id="line2d_72">
     <g>
      <use xlink:href="#m872e286ff7" x="72.53625" y="46.578125" style="fill-opacity: 0.6; stroke: #000000; stroke-opacity: 0.6"/>
     </g>
    </g>
    <g id="text_18">
     <!-- ± 1 std. dev. -->
     <g transform="translate(90.53625 55.078125)scale(0.1 -0.1)">
      <defs>
       <path id="TimesNewRomanPSMT-b1" d="M 25 441 
L 25 694 
L 1581 694 
L 1581 2000 
L 25 2000 
L 25 2256 
L 1581 2256 
L 1581 3809 
L 1831 3809 
L 1831 2256 
L 3394 2256 
L 3394 2000 
L 1831 2000 
L 1831 694 
L 3397 694 
L 3397 441 
L 25 441 
z
" transform="scale(0.015625)"/>
       <path id="TimesNewRomanPSMT-2e" d="M 800 606 
Q 947 606 1047 504 
Q 1147 403 1147 259 
Q 1147 116 1045 14 
Q 944 -88 800 -88 
Q 656 -88 554 14 
Q 453 116 453 259 
Q 453 406 554 506 
Q 656 606 800 606 
z
" transform="scale(0.015625)"/>
      </defs>
      <use xlink:href="#TimesNewRomanPSMT-b1"/>
      <use xlink:href="#TimesNewRomanPSMT-20" x="54.882812"/>
      <use xlink:href="#TimesNewRomanPSMT-31" x="79.882812"/>
      <use xlink:href="#TimesNewRomanPSMT-20" x="129.882812"/>
      <use xlink:href="#TimesNewRomanPSMT-73" x="154.882812"/>
      <use xlink:href="#TimesNewRomanPSMT-74" x="193.798828"/>
      <use xlink:href="#TimesNewRomanPSMT-64" x="221.582031"/>
      <use xlink:href="#TimesNewRomanPSMT-2e" x="271.582031"/>
      <use xlink:href="#TimesNewRomanPSMT-20" x="296.582031"/>
      <use xlink:href="#TimesNewRomanPSMT-64" x="321.582031"/>
      <use xlink:href="#TimesNewRomanPSMT-65" x="371.582031"/>
      <use xlink:href="#TimesNewRomanPSMT-76" x="415.966797"/>
      <use xlink:href="#TimesNewRomanPSMT-2e" x="459.466797"/>
     </g>
    </g>
   </g>
  </g>
 </g>
 <defs>
  <clipPath id="pd3b26fcd33">
   <rect x="53.53625" y="10.8" width="187.66375" height="155.720464"/>
  </clipPath>
 </defs>
</svg>
